<?xml version="1.0" encoding="UTF-8"?>
<svg width="23px" height="18px" viewBox="0 0 23 18" version="1.1" xmlns="http://www.w3.org/2000/svg" xmlns:xlink="http://www.w3.org/1999/xlink">
    <!-- Generator: Sketch 43 (38999) - http://www.bohemiancoding.com/sketch -->
    <title>folder-outline</title>
    <desc>Created with Sketch.</desc>
    <defs></defs>
    <g id="Page-1" stroke="none" stroke-width="1" fill="none" fill-rule="evenodd">
        <g id="folder-outline" fill-rule="nonzero">
            <path d="M19.8,2.25 L11,2.25 L8.8,0 L2.2,0 C0.99,0 0,1.013 0,2.25 L0,15.75 C0,16.988 0.99,18 2.2,18 L19.8,18 C21.01,18 22,16.988 22,15.75 L22,4.5 C22,3.263 21.01,2.25 19.8,2.25 Z" id="Shape" fill="#EAF1EF"></path>
            <path d="M20.8,5.75 L12,5.75 L9.8,4 L3.2,4 C1.99,4 1,4.78788889 1,5.75 L1,16.25 C1,17.2128889 1.99,18 3.2,18 L20.8,18 C22.01,18 23,17.2128889 23,16.25 L23,7.5 C23,6.53788889 22.01,5.75 20.8,5.75 Z" id="Shape" fill="#59595A"></path>
        </g>
    </g>
</svg>